<svg id="Layer_1" data-name="Layer 1" xmlns="http://www.w3.org/2000/svg" viewBox="0 0 1280 1024"><defs><style>.cls-1{fill:#dd5252;stroke-width:3.69px;}.cls-1,.cls-2,.cls-3,.cls-4,.cls-5,.cls-6,.cls-7,.cls-8{stroke:#000;stroke-miterlimit:10;}.cls-2{fill:#e59145;stroke-width:2.8px;}.cls-3{fill:#50ba64;stroke-width:3.6px;}.cls-4{fill:#e2e264;stroke-width:2.72px;}.cls-5{fill:#90e26f;}.cls-5,.cls-7{stroke-width:3.55px;}.cls-6{fill:#70e0c3;}.cls-6,.cls-8{stroke-width:2.69px;}.cls-7{fill:#72c7db;}.cls-8{fill:#9d72db;}.cls-9{font-size:13px;font-family:IBMPlexSans, IBM Plex Sans;}.cls-16,.cls-9{fill:#fff;}.cls-10{letter-spacing:0em;}.cls-11{letter-spacing:-0.08em;}.cls-12{letter-spacing:0em;}.cls-13{letter-spacing:-0.02em;}.cls-14{letter-spacing:0em;}.cls-15{letter-spacing:0em;}.cls-16{font-size:15px;font-family:IBMPlexSans-Bold, IBM Plex Sans;font-weight:700;}.cls-17{letter-spacing:-0.01em;}.cls-18{letter-spacing:0em;}.cls-19{letter-spacing:-0.01em;}.cls-20{letter-spacing:-0.01em;}.cls-21{letter-spacing:-0.01em;}</style></defs><title>Artboard 1</title><path class="cls-1" d="M165.21,132c-44.44,0-80.48,23.47-80.48,52.42a37.37,37.37,0,0,0,6.72,21L80,224l31.63-.47c14.23,8.28,33,13.32,53.58,13.32,44.45,0,80.48-23.47,80.48-52.41S209.66,132,165.21,132Z"/><path class="cls-2" d="M306.42,210.6c33.67,0,61,17.77,61,39.7a28.34,28.34,0,0,1-5.08,15.88L371,280.27l-24-.36C336.23,286.18,322,290,306.42,290c-33.66,0-61-17.77-61-39.7S272.76,210.6,306.42,210.6Z"/><path class="cls-3" d="M1008,198.11c-43.3,0-78.4,22.86-78.4,51.06a36.35,36.35,0,0,0,6.54,20.42L925,287.71l30.82-.45c13.86,8.06,32.14,13,52.19,13,43.3,0,78.4-22.86,78.4-51.06S1051.31,198.11,1008,198.11Z"/><path class="cls-4" d="M1145.57,274.65c32.8,0,59.39,17.32,59.39,38.68a27.63,27.63,0,0,1-5,15.46l8.44,13.73-23.34-.35c-10.5,6.11-24.35,9.83-39.54,9.83-32.79,0-59.38-17.32-59.38-38.67S1112.78,274.65,1145.57,274.65Z"/><path class="cls-5" d="M244.93,598.11c-42.73,0-77.38,22.57-77.38,50.4A35.85,35.85,0,0,0,174,668.66l-11,17.89,30.42-.45c13.68,8,31.72,12.8,51.51,12.8,42.74,0,77.38-22.56,77.38-50.39S287.67,598.11,244.93,598.11Z"/><path class="cls-6" d="M380.71,673.66c32.37,0,58.61,17.09,58.61,38.17a27.17,27.17,0,0,1-4.89,15.26l8.34,13.55-23-.34c-10.36,6-24,9.7-39,9.7-32.37,0-58.62-17.09-58.62-38.17S348.34,673.66,380.71,673.66Z"/><path class="cls-7" d="M821.93,520.11c-42.73,0-77.38,22.57-77.38,50.4A35.85,35.85,0,0,0,751,590.66l-11,17.89,30.42-.45c13.68,8,31.72,12.8,51.51,12.8,42.74,0,77.38-22.56,77.38-50.39S864.67,520.11,821.93,520.11Z"/><path class="cls-8" d="M957.71,595.66c32.37,0,58.61,17.09,58.61,38.17a27.17,27.17,0,0,1-4.89,15.26l8.34,13.55-23-.34c-10.36,6-24,9.7-39,9.7-32.37,0-58.62-17.09-58.62-38.17S925.34,595.66,957.71,595.66Z"/><text class="cls-9" transform="translate(94.27 180.57)">Come up with a ca<tspan class="cls-10" x="106.64" y="0">t</tspan><tspan x="111.15" y="0">chie</tspan><tspan class="cls-11" x="135.46" y="0">r</tspan><tspan x="139.19" y="0">,</tspan><tspan x="1.85" y="15.6">mo</tspan><tspan class="cls-12" x="20.47" y="15.6">r</tspan><tspan x="25.18" y="15.6">e mar</tspan><tspan class="cls-13" x="58.45" y="15.6">k</tspan><tspan class="cls-14" x="65.08" y="15.6">etable name </tspan><tspan class="cls-15"><tspan x="35.67" y="31.2">f</tspan><tspan class="cls-14" x="39.83" y="31.2">or the Bible</tspan></tspan></text><text class="cls-16" transform="translate(264.37 248.63)">Fifty Shades<tspan class="cls-17" x="19.22" y="18">o</tspan><tspan class="cls-18" x="27.59" y="18">f </tspan><tspan class="cls-19" x="36.55" y="18">P</tspan><tspan class="cls-20" x="46.24" y="18">r</tspan><tspan class="cls-21" x="52.09" y="18">a</tspan><tspan x="60.49" y="18">y</tspan></text></svg>