<svg id="Layer_1" data-name="Layer 1" xmlns="http://www.w3.org/2000/svg" viewBox="0 0 2105 1082"><defs><style>.cls-1,.cls-2,.cls-3,.cls-4,.cls-5,.cls-6{fill:none;stroke:#000;stroke-miterlimit:10;}.cls-1{stroke-width:5.78px;}.cls-2{stroke-width:4.38px;}.cls-3{stroke-width:5.63px;}.cls-4{stroke-width:4.26px;}.cls-5{stroke-width:5.56px;}.cls-6{stroke-width:4.21px;}.cls-7{font-size:20.34px;font-family:IBMPlexSans, IBM Plex Sans;}.cls-8{letter-spacing:0em;}.cls-9{letter-spacing:-0.08em;}.cls-10{letter-spacing:0em;}.cls-11{letter-spacing:-0.02em;}.cls-12{letter-spacing:0em;}.cls-13{letter-spacing:0em;}.cls-14{font-size:23.47px;font-family:IBMPlexSans-Bold, IBM Plex Sans;font-weight:700;}.cls-15{letter-spacing:-0.01em;}.cls-16{letter-spacing:-0.01em;}.cls-17{letter-spacing:-0.01em;}.cls-18{letter-spacing:-0.01em;}</style></defs><title>Artboard 1</title><path class="cls-1" d="M213.35,132c-69.56,0-125.94,36.72-125.94,82,0,11.67,3.76,22.76,10.5,32.8L80,276l49.5-.73c22.27,13,51.64,20.84,83.85,20.84,69.55,0,125.94-36.72,125.94-82S282.9,132,213.35,132Z"/><path class="cls-2" d="M434.32,255c52.69,0,95.4,27.81,95.4,62.12a44.35,44.35,0,0,1-8,24.85L535.33,364l-37.5-.55c-16.87,9.81-39.11,15.78-63.51,15.78-52.68,0-95.39-27.81-95.39-62.13S381.64,255,434.32,255Z"/><path class="cls-3" d="M1201.34,235.44c-67.76,0-122.69,35.77-122.69,79.9,0,11.37,3.67,22.17,10.24,32l-17.45,28.35,48.22-.71c21.69,12.62,50.3,20.3,81.68,20.3,67.76,0,122.68-35.77,122.68-79.9S1269.1,235.44,1201.34,235.44Z"/><path class="cls-4" d="M1416.6,355.21c51.33,0,92.93,27.1,92.93,60.52a43.08,43.08,0,0,1-7.75,24.2L1515,461.41l-36.53-.53c-16.43,9.55-38.1,15.37-61.87,15.37-51.32,0-92.92-27.09-92.92-60.52S1365.28,355.21,1416.6,355.21Z"/><path class="cls-5" d="M338.1,818.74C271.22,818.74,217,854.05,217,897.6c0,11.22,3.62,21.88,10.1,31.54l-17.23,28,47.6-.7c21.41,12.45,49.65,20,80.62,20,66.87,0,121.09-35.3,121.09-78.86S405,818.74,338.1,818.74Z"/><path class="cls-6" d="M550.57,937c50.65,0,91.72,26.75,91.72,59.74a42.61,42.61,0,0,1-7.65,23.89l13,21.2-36-.53c-16.22,9.43-37.61,15.17-61.06,15.17-50.66,0-91.73-26.74-91.73-59.73S499.91,937,550.57,937Z"/><path class="cls-5" d="M995.93,696.68c-66.87,0-121.09,35.31-121.09,78.86,0,11.22,3.62,21.88,10.1,31.54l-17.22,28,47.6-.7c21.41,12.45,49.65,20,80.61,20,66.88,0,121.09-35.3,121.09-78.86S1062.81,696.68,995.93,696.68Z"/><path class="cls-6" d="M1208.4,814.89c50.66,0,91.72,26.75,91.72,59.74a42.61,42.61,0,0,1-7.65,23.89l13,21.2-36.06-.53c-16.21,9.43-37.6,15.17-61.06,15.17-50.66,0-91.72-26.74-91.72-59.73S1157.74,814.89,1208.4,814.89Z"/><text class="cls-7" transform="translate(102.33 207.99)">Come up with a ca<tspan class="cls-8" x="166.87" y="0">t</tspan><tspan x="173.93" y="0">chie</tspan><tspan class="cls-9" x="211.97" y="0">r</tspan><tspan x="217.81" y="0">,</tspan><tspan x="2.89" y="24.41">mo</tspan><tspan class="cls-10" x="32.04" y="24.41">r</tspan><tspan x="39.4" y="24.41">e mar</tspan><tspan class="cls-11" x="91.46" y="24.41">k</tspan><tspan class="cls-12" x="101.84" y="24.41">etable name </tspan><tspan class="cls-13" x="55.82" y="48.82">f</tspan><tspan x="62.33" y="48.82">or the Bible</tspan></text><text class="cls-14" transform="translate(368.51 314.49)">Fifty Shades<tspan class="cls-15" x="30.08" y="28.17">o</tspan><tspan x="43.18" y="28.17">f </tspan><tspan class="cls-16" x="57.19" y="28.17">P</tspan><tspan class="cls-17" x="72.35" y="28.17">r</tspan><tspan class="cls-18" x="81.51" y="28.17">a</tspan><tspan x="94.65" y="28.17">y</tspan></text></svg>